<svg width="29" height="24" viewBox="0 0 29 24" fill="none" xmlns="http://www.w3.org/2000/svg">
<path d="M13.2002 0.75H21.1895L27.6504 7.20996V20C27.6504 21.7949 26.1952 23.2499 24.4004 23.25H13.2002C11.4053 23.25 9.9502 21.7949 9.9502 20V4C9.9502 2.20508 11.4053 0.75 13.2002 0.75Z" stroke="#D5D7DA" stroke-width="1.5"/>
<path d="M21.2002 0.299805V3.1998C21.2002 5.40894 22.9911 7.1998 25.2002 7.1998H28.1002" stroke="#D5D7DA" stroke-width="1.5"/>
<rect y="7.59961" width="28" height="16" rx="2" fill="#7F56D9"/>
<path d="M7.96218 14.4185C7.93377 14.132 7.81185 13.9095 7.59641 13.7509C7.38098 13.5923 7.0886 13.513 6.71928 13.513C6.46834 13.513 6.25645 13.5485 6.08363 13.6195C5.91081 13.6882 5.77823 13.784 5.6859 13.9071C5.59594 14.0302 5.55096 14.1699 5.55096 14.3262C5.54622 14.4564 5.57345 14.57 5.63263 14.6671C5.69419 14.7641 5.77823 14.8482 5.88477 14.9192C5.9913 14.9879 6.11441 15.0482 6.25408 15.1003C6.39376 15.15 6.54291 15.1926 6.70153 15.2282L7.35494 15.3844C7.67217 15.4554 7.96336 15.5501 8.22852 15.6685C8.49367 15.7869 8.72331 15.9325 8.91744 16.1053C9.11156 16.2781 9.2619 16.4817 9.36843 16.7161C9.47733 16.9505 9.53297 17.2192 9.53533 17.5222C9.53297 17.9673 9.41933 18.3532 9.19442 18.6799C8.97189 19.0042 8.64992 19.2563 8.22852 19.4363C7.80948 19.6138 7.30404 19.7026 6.71218 19.7026C6.12506 19.7026 5.6137 19.6126 5.17809 19.4327C4.74485 19.2528 4.40631 18.9864 4.16246 18.6337C3.92099 18.2786 3.79433 17.8394 3.78249 17.3162H5.27042C5.28699 17.5601 5.35683 17.7637 5.47994 17.927C5.60541 18.088 5.77231 18.2099 5.98065 18.2928C6.19135 18.3733 6.42927 18.4135 6.69442 18.4135C6.95484 18.4135 7.18093 18.3757 7.37269 18.2999C7.56682 18.2241 7.71715 18.1188 7.82369 17.9838C7.93022 17.8489 7.98349 17.6938 7.98349 17.5186C7.98349 17.3553 7.93496 17.218 7.83789 17.1067C7.74319 16.9954 7.60352 16.9007 7.41886 16.8226C7.23656 16.7445 7.01284 16.6735 6.74769 16.6096L5.95579 16.4107C5.34263 16.2615 4.85849 16.0283 4.50337 15.7111C4.14826 15.3939 3.97189 14.9666 3.97425 14.4292C3.97189 13.9888 4.08907 13.6041 4.32582 13.275C4.56493 12.946 4.89281 12.6891 5.30948 12.5044C5.72615 12.3198 6.19963 12.2275 6.72994 12.2275C7.26971 12.2275 7.74083 12.3198 8.14329 12.5044C8.54812 12.6891 8.86299 12.946 9.08789 13.275C9.3128 13.6041 9.4288 13.9853 9.4359 14.4185H7.96218ZM11.8835 12.3269L13.6413 17.8525H13.7088L15.4702 12.3269H17.1747L14.6676 19.5996H12.6861L10.1754 12.3269H11.8835ZM22.4624 14.6777C22.4126 14.5049 22.3428 14.3522 22.2528 14.2196C22.1629 14.0847 22.0528 13.9711 21.9226 13.8787C21.7947 13.784 21.648 13.7118 21.4822 13.6621C21.3189 13.6124 21.1378 13.5875 20.9389 13.5875C20.5672 13.5875 20.2405 13.6799 19.9588 13.8645C19.6795 14.0492 19.4616 14.3179 19.3054 14.6706C19.1491 15.021 19.071 15.4495 19.071 15.9561C19.071 16.4628 19.148 16.8936 19.3018 17.2488C19.4557 17.6039 19.6735 17.8749 19.9553 18.062C20.237 18.2466 20.5696 18.339 20.9531 18.339C21.3011 18.339 21.5982 18.2774 21.8445 18.1543C22.093 18.0288 22.2824 17.8525 22.4126 17.6252C22.5452 17.3979 22.6115 17.1292 22.6115 16.8191L22.924 16.8652H21.049V15.7076H24.0923V16.6238C24.0923 17.263 23.9574 17.8122 23.6875 18.2715C23.4176 18.7284 23.0459 19.0811 22.5724 19.3297C22.099 19.5759 21.5568 19.699 20.946 19.699C20.2642 19.699 19.6652 19.5487 19.1491 19.248C18.633 18.945 18.2306 18.5153 17.9418 17.959C17.6553 17.4003 17.5121 16.7374 17.5121 15.9703C17.5121 15.3809 17.5973 14.8553 17.7678 14.3936C17.9406 13.9296 18.1821 13.5366 18.4922 13.2147C18.8023 12.8927 19.1634 12.6477 19.5753 12.4796C19.9872 12.3115 20.4335 12.2275 20.9141 12.2275C21.326 12.2275 21.7095 12.2878 22.0646 12.4086C22.4197 12.5269 22.7346 12.695 23.0092 12.9128C23.2862 13.1306 23.5123 13.3899 23.6875 13.6905C23.8627 13.9888 23.9751 14.3179 24.0249 14.6777H22.4624Z" fill="white"/>
</svg>
