<svg width="24" height="22" viewBox="0 0 24 22" fill="none" xmlns="http://www.w3.org/2000/svg">
<rect x="6" y="0.5" width="18" height="21" rx="2" fill="#2FB776"/>
<path d="M6 16.25H24V19.5C24 20.6046 23.1046 21.5 22 21.5H8C6.89543 21.5 6 20.6046 6 19.5V16.25Z" fill="url(#paint0_linear_99_7012)"/>
<rect x="15" y="11" width="9" height="5.25" fill="#229C5B"/>
<rect x="15" y="5.75" width="9" height="5.25" fill="#27AE68"/>
<path d="M6 2.5C6 1.39543 6.89543 0.5 8 0.5H15V5.75H6V2.5Z" fill="#1D854F"/>
<rect x="6" y="5.75" width="9" height="5.25" fill="#197B43"/>
<rect x="6" y="11" width="9" height="5.25" fill="#1B5B38"/>
<path d="M6 8.75C6 7.09315 7.34315 5.75 9 5.75H12C13.6569 5.75 15 7.09315 15 8.75V16.25C15 17.9069 13.6569 19.25 12 19.25H6V8.75Z" fill="black" fill-opacity="0.3"/>
<rect y="4.25" width="13.5" height="13.5" rx="2" fill="url(#paint1_linear_99_7012)"/>
<path d="M9.75 14.75L7.6366 10.925L9.65722 7.25H8.00773L6.76031 9.59643L5.53351 7.25H3.83247L5.8634 10.925L3.75 14.75H5.39948L6.72938 12.2643L8.04897 14.75H9.75Z" fill="white"/>
<defs>
<linearGradient id="paint0_linear_99_7012" x1="6" y1="18.875" x2="24" y2="18.875" gradientUnits="userSpaceOnUse">
<stop stop-color="#163C27"/>
<stop offset="1" stop-color="#2A6043"/>
</linearGradient>
<linearGradient id="paint1_linear_99_7012" x1="0" y1="11" x2="13.5" y2="11" gradientUnits="userSpaceOnUse">
<stop stop-color="#185A30"/>
<stop offset="1" stop-color="#176F3D"/>
</linearGradient>
</defs>
</svg>
